<?xml version="1.0" encoding="utf-8"?>
<!-- Generator: Adobe Illustrator 19.2.1, SVG Export Plug-In . SVG Version: 6.00 Build 0)  -->
<svg version="1.1" id="Camada_1" xmlns="http://www.w3.org/2000/svg" xmlns:xlink="http://www.w3.org/1999/xlink" x="0px" y="0px"
	 viewBox="0 0 159.9 39.1" style="enable-background:new 0 0 159.9 39.1;" xml:space="preserve">
<style type="text/css">
	.st0{fill:#FFFFFF;}
</style>
<g>
	<path class="st0" d="M6.5,26.4l-1.2-1.2c-0.4-0.4-0.7-0.7-0.7-1c0-0.3,0.3-0.6,1-1l2.4,2.4c0.3,0.3,0.4,0.5,0.4,0.8
		c0,0.2-0.1,0.5-0.4,0.7l-1.3,1.4c-0.4,0.4-0.7,0.8-1.2,0.8c-0.3,0-0.6-0.2-1-0.8L6.5,26.4z M157.3,28.3c-0.3,0.6-0.7,0.8-1,0.8
		c-0.4,0-0.8-0.4-1.2-0.8l-1.3-1.4c-0.3-0.3-0.4-0.5-0.4-0.7c0-0.2,0.1-0.5,0.4-0.8l2.4-2.4c0.7,0.4,1,0.7,1,1c0,0.3-0.3,0.6-0.7,1
		l-1.2,1.2L157.3,28.3z M16.7,24.4c0-1.3,0.5-1.8,2-1.8c1.1,0,1.9,0.4,2,0.4v1.8c0,1.3-0.4,2-2,2c-1.6,0-2-0.7-2-2V24.4z M19,29.8
		h-0.6c-1.5,0-2.3-0.1-2.3-1.1c0-0.3,0.1-0.6,0.1-0.9c0,0,0.9,0.6,2.5,0.6c2.6,0,4-1.2,4-3.3l0-3.5c-0.7-0.1-1.1-0.2-1.6-0.3
		c-0.9-0.2-1.6-0.3-2.6-0.3c-0.1,0-0.2,0-0.3,0c-1.9,0-3.7,0.8-3.7,3v1c0,0.8,0.3,1.6,0.7,2.1c-0.6,0.7-1,1.2-1,2
		c0,2,1.7,2.2,3.6,2.2H19c1.3,0,2.1,0.1,2.1,1.2c0,1-0.6,1.7-2.5,1.7c-1.2,0-2.1-0.2-2.8-0.7c0,0,0,0,0,0v0c-0.6-0.4-1.1-0.9-1.2-1
		c0,0,0,0,0,0c0,0.1,0,0.4,0,0.5v1.4c0.3,0.4,0.8,0.7,0.9,0.7c0,0,0,0,0,0c0.7,0.4,1.8,0.7,3.1,0.7c3,0,4.4-1.4,4.4-3.4
		C23.1,29.9,21,29.8,19,29.8 M29.9,23.7v-2c-0.2-0.2-0.5-0.3-0.6-0.4c0,0-0.1,0-0.1,0c-0.4-0.1-0.8-0.2-1.3-0.2
		c-0.6,0-0.9,0.1-1.2,0.1c-0.3,0.1-0.4,0.1-0.8,0.2c-0.5,0.1-1.1,0.2-1.9,0.3v9.2c0,0.6,2,0.4,2,0.4V23c0,0,0.4-0.1,1.2-0.2
		c0.1,0,0.3-0.1,0.4-0.1c0.5,0,0.9,0,1.3,0.2C29.4,23.2,29.7,23.5,29.9,23.7C29.9,23.7,29.9,23.7,29.9,23.7 M56.7,24.6
		c0-1.3-0.4-2-2.4-2c-2,0-2.4,0.7-2.4,2v3.2c0,1.3,0.4,2,2.4,2c2,0,2.4-0.7,2.4-2V24.6z M58.8,28.1c0,2-1.4,3.3-4.4,3.3
		c-3,0-4.4-1.2-4.4-3.3v-3.8c0-2,1.4-3.3,4.4-3.3c3,0,4.4,1.2,4.4,3.3V28.1z M42.4,22.9c0,0,0.7-0.3,1.9-0.3c1.8,0,2.3,0.6,2.3,2
		v3.3c0,1.4-0.8,1.9-1.9,1.9c-1.2,0-2.3-0.7-2.3-1.8V22.9z M42.4,31.9c0-0.1,0-0.1,0-0.2c0-0.4,0-1,0-1.1c0,0,0,0,0,0
		c0.3,0.3,1.1,0.8,2.6,0.8c2,0,3.6-1.2,3.6-3.2v-3.9c0-2.1-1.5-3.3-4.2-3.3c-1,0-1,0-1.9,0.2c-0.4,0.1-1.5,0.3-2.1,0.4l0,13.8
		c0,0.8,2,0.6,2,0.6v-1.3V31.9z M32.9,28.1c0,1.1,0.5,1.8,2.1,1.8c1.2,0,2.1-0.3,2.1-0.3v-8.3c0,0,2-0.1,2,0.5v8.9
		c-0.6,0.2-0.9,0.3-1.6,0.6c-0.9,0.3-1.7,0.3-2.8,0.3c-1.9,0-3.9-0.6-3.9-3.1v-7.2c0,0,2-0.1,2,0.4V28.1z M84.2,6.7
		C84.2,6.7,84.2,6.7,84.2,6.7c-0.1-0.1-0.1-0.3-0.2-0.4c-0.1-0.1-0.1-0.2-0.2-0.3c-1.6-2.1-5.6-3.7-10.4-3.7c0,0-0.1,0-0.1,0
		c0,0-0.1,0-0.1,0c-4.8,0-8.8,1.5-10.4,3.7v0c0,0,0,0,0,0c0,0,0,0.1-0.1,0.1c0,0-0.1,0.1-0.1,0.2c-0.1,0.1-0.1,0.2-0.1,0.2
		c0,0,0,0.1,0,0.1c-0.3,0.8-0.6,2.2,0.4,3.8c0,0,0,0,0,0v0l0,0c0,0,0.4-0.5,0.6-0.7c0,0,0,0,0,0C65.4,8,69,6.7,73.2,6.7
		c0,0,0.1,0,0.1,0h0c0,0,0.1,0,0.1,0c4.2,0,7.8,1.2,9.6,3c0,0,0,0,0.1,0.1v0c0.1,0.1,0.6,0.8,0.6,0.8C84.8,9,84.5,7.6,84.2,6.7
		 M80.7,19.2v9.6c0,0-1.3,0.5-3.4,1c-1,0.2-2,0.3-3.4,0.4c-0.4,0-0.9,0-1.3,0c-0.8,0-1.3-0.1-1.9-0.2c-0.4-0.1-0.9-0.2-1.3-0.3
		c-2-0.8-2.8-2.2-2.8-4c0-5.6,6.5-4.8,11-6c0.3-0.1,0.6-0.2,0.9-0.2c0.5-0.1,0.6-0.2,1-0.3c0.1,0,0.3-0.1,0.5-0.2
		c0.2-0.1,0.4-0.2,0.7-0.3V19.2z M85.2,9.5c-0.4,2.7-4.1,4.4-4.1,4.4l0,0c-0.2,0.1-0.5,0.2-0.7,0.4c-1,0.5-3.2,1-4.3,1.2
		c-5.7,1.1-14.2,1.8-14.2,10.1c0,6.5,5.6,8.8,11,8.8c3.3,0,5.9-0.3,8.5-1.1c1.3-0.4,2.9-0.9,3.9-1.7V12.6
		C85.3,11.2,85.3,10.3,85.2,9.5"/>
	<path class="st0" d="M147.3,26.1c0-1.7-1-3-2.7-3c-1.6,0-2.8,1.3-2.8,3.1c0,1.7,1,3,2.7,3C146.1,29.2,147.3,28.1,147.3,26.1
		 M146.2,26.1c0,1.2-0.6,2.2-1.6,2.2c-1,0-1.6-0.9-1.6-2.1c0-1.2,0.6-2.2,1.6-2.2C145.6,24,146.2,25,146.2,26.1 M135.9,22.9
		c0-0.6,0.2-1,0.6-1c0.2,0,0.4,0.1,0.5,0.2c0.1,0.1,0.3,0.2,0.4,0.2c0.1,0,0.2-0.1,0.2-0.4h0.5c0,0.7-0.2,1-0.6,1
		c-0.2,0-0.4-0.1-0.5-0.2c-0.2-0.1-0.3-0.2-0.4-0.2c-0.1,0-0.2,0.1-0.2,0.4H135.9z M139.5,29.1l-1.9-5.8h-1.4l-1.9,5.8h1.1l0.5-1.7
		h1.8l0.5,1.7H139.5z M137.7,26.6h-1.5l0.4-1.4c0.1-0.3,0.2-0.8,0.3-1.1h0c0.1,0.3,0.2,0.7,0.3,1.1L137.7,26.6z M131.9,28.9
		c-0.2,0.1-0.7,0.3-1.4,0.3l-0.2,0.3c0.3,0.1,0.6,0.3,0.6,0.7c0,0.6-0.5,0.8-1,0.8c-0.2,0-0.5-0.1-0.7-0.2l0.2-0.5
		c0.1,0.1,0.3,0.1,0.5,0.1c0.2,0,0.3-0.1,0.3-0.2c0-0.2-0.2-0.3-0.7-0.3l0.3-0.7c-1.5-0.2-2.5-1.3-2.5-2.9c0-1.9,1.3-3.1,3.1-3.1
		c0.7,0,1.2,0.1,1.4,0.3l-0.2,0.8c-0.3-0.1-0.7-0.2-1.1-0.2c-1.2,0-2,0.7-2,2.2c0,1.3,0.7,2.1,2,2.1c0.4,0,0.9-0.1,1.2-0.2
		L131.9,28.9z M125.1,29.1l-1.9-5.8h-1.3l-1.9,5.8h1.1l0.5-1.7h1.8l0.5,1.7H125.1z M123.3,26.6h-1.5l0.4-1.4
		c0.1-0.3,0.2-0.8,0.3-1.1h0c0.1,0.3,0.2,0.7,0.3,1.1L123.3,26.6z M117.5,28.9c-0.3,0.1-0.8,0.3-1.5,0.3c-1.8,0-3-1.2-3-2.9
		c0-1.9,1.3-3.1,3.1-3.1c0.7,0,1.2,0.1,1.4,0.3l-0.2,0.8c-0.3-0.1-0.7-0.2-1.1-0.2c-1.2,0-2,0.7-2,2.2c0,1.3,0.7,2.1,2,2.1
		c0.4,0,0.9-0.1,1.2-0.2L117.5,28.9z M105.7,23.3v3.3c0,1.8,0.9,2.6,2.2,2.6c1.4,0,2.3-0.8,2.3-2.6v-3.3h-1.1v3.4
		c0,1.1-0.5,1.7-1.2,1.7c-0.7,0-1.2-0.5-1.2-1.7v-3.4H105.7z M102.8,26c0-1-0.3-1.7-0.9-2.1c-0.5-0.5-1.3-0.7-2.4-0.7
		c-0.6,0-1.2,0.1-1.7,0.1v5.7c0.4,0,0.8,0.1,1.4,0.1c1.1,0,2-0.3,2.6-0.8C102.4,27.9,102.8,27.1,102.8,26 M101.7,26.1
		c0,1.5-0.8,2.3-2.2,2.2c-0.2,0-0.4,0-0.6,0v-4.2c0.2,0,0.4-0.1,0.7-0.1C100.9,24,101.7,24.8,101.7,26.1 M94.7,25.6h-2.2v-1.5h2.3
		v-0.9h-3.4v5.8h3.5v-0.9h-2.4v-1.7h2.2V25.6z"/>
</g>
<g>
</g>
<g>
</g>
<g>
</g>
<g>
</g>
<g>
</g>
<g>
</g>
<g>
</g>
<g>
</g>
<g>
</g>
<g>
</g>
<g>
</g>
<g>
</g>
<g>
</g>
<g>
</g>
<g>
</g>
</svg>
