<?xml version="1.0" encoding="utf-8"?>
<!-- Generator: Adobe Illustrator 21.0.2, SVG Export Plug-In . SVG Version: 6.00 Build 0)  -->
<svg version="1.1" id="Camada_1" xmlns="http://www.w3.org/2000/svg" xmlns:xlink="http://www.w3.org/1999/xlink" x="0px" y="0px"
	 viewBox="0 0 170 80" style="enable-background:new 0 0 170 80;" xml:space="preserve">
<style type="text/css">
	.st0{fill:#FFFFFF;}
	.st1{fill-rule:evenodd;clip-rule:evenodd;fill:#FFFFFF;}
</style>
<path class="st0" d="M81.2,69.2l0.1,0.9c0,0.3,0,0.4,0,0.5l-0.2,0c-0.3-0.6-0.6-1-0.9-1.3c-0.4-0.3-0.8-0.4-1.4-0.4
	c-0.7,0-1.2,0.1-1.5,0.2c-0.5,0.2-1,0.6-1.4,1.2c-0.4,0.6-0.6,1.2-0.6,2c0,0.5,0.1,0.9,0.2,1.2c0.1,0.4,0.3,0.7,0.6,1
	c0.3,0.3,0.6,0.6,0.9,0.8c0.2,0.2,0.5,0.3,0.8,0.3c0.2,0,0.4,0.1,0.8,0.1c0.2,0,0.5,0,0.7-0.1c0.3-0.1,0.5-0.1,0.6-0.3
	c0.1-0.1,0.2-0.2,0.3-0.4c0-0.1,0.1-0.4,0.1-0.8c0-0.6,0-1-0.1-1.1c-0.1-0.1-0.4-0.2-0.8-0.2l-0.2,0L79,73c0,0,0,0-0.1,0l-0.1-0.1
	c0,0,0,0,0-0.1c0.2,0,0.6,0,1.3,0c0.1,0,0.4,0,0.7,0l0.6,0H82c0.1,0,0.2,0,0.4,0c0,0,0,0,0.1,0c0,0,0,0,0,0c0,0,0,0.1,0,0.2
	c-0.2,0-0.3,0-0.4,0l-0.4,0c-0.1,0-0.2,0-0.3,0.1c0,0-0.1,0.2-0.1,0.4l0,0.7c0,0.5,0,0.8-0.1,1c0,0.1-0.1,0.2-0.1,0.2
	c-0.1,0.1-0.2,0.1-0.4,0.2C80.3,75.9,80,76,79.8,76c-0.5,0.1-1,0.1-1.4,0.1c-0.7,0-1.3-0.1-1.8-0.3c-0.5-0.2-0.9-0.4-1.2-0.8
	c-0.3-0.3-0.6-0.7-0.7-1c-0.2-0.5-0.3-1-0.3-1.5c0-0.6,0.2-1.3,0.5-1.9c0.3-0.6,0.9-1.1,1.7-1.5c0.5-0.3,1.3-0.4,2.2-0.4
	c0.6,0,1.2,0,1.6,0.2C80.6,68.9,80.9,69.1,81.2,69.2 M82.9,75.8c0.5-0.1,0.8-0.1,0.9-0.1c0.1,0,0.1-0.1,0.1-0.2v-0.1
	c0-0.1,0-0.4,0-1c0-0.2,0-0.3,0-0.5l0-0.7l0-0.8l0-1.4l0-1c0-0.4,0-0.7-0.1-0.8c-0.1-0.1-0.3-0.2-0.5-0.2c-0.3,0-0.4-0.1-0.5-0.1
	c0,0,0-0.1,0-0.1c0,0,0-0.1,0-0.1c0,0,0.1-0.1,0.3-0.1c0,0,0.1,0,0.2,0c0.1,0,0.2,0,0.2,0h0.5l1.5,0c0.8,0,1.4,0.1,1.7,0.2
	c0.3,0.1,0.6,0.3,0.8,0.6c0.2,0.3,0.3,0.6,0.3,1c0,0.7-0.4,1.2-1.1,1.6c-0.1,0.1-0.2,0.1-0.3,0.2c0.1,0.3,0.3,0.6,0.5,1l0.7,1.2
	c0.3,0.5,0.5,0.7,0.6,0.8c0.1,0.1,0.2,0.2,0.4,0.3c0.2,0.1,0.4,0.1,0.8,0.2c0,0,0,0.1,0,0.1c0,0,0,0.1,0,0.1c-0.5,0-1.1,0-1.8,0
	c0,0-0.1,0-0.2,0c-0.3-0.5-0.6-1.1-0.9-1.7l-0.8-1.5c-0.1-0.2-0.2-0.3-0.3-0.3c-0.1,0-0.2-0.1-0.3-0.1l-0.5,0l-0.2,0
	c0,0.1,0,0.4,0,0.7v1.9c0,0.1,0,0.2,0,0.3c0,0.1,0.1,0.1,0.2,0.2c0.1,0,0.3,0.1,0.6,0.2l0.2,0.1c0,0,0,0.1,0,0.1c-0.1,0-0.2,0-0.2,0
	c-0.3,0-0.6,0-0.7,0c-0.1,0-0.1,0-0.2,0l-0.8,0l-0.7,0c0,0-0.2,0-0.5,0l-0.1,0l0-0.1C82.8,75.9,82.8,75.9,82.9,75.8 M84.9,72.2
	c0.1,0,0.2,0,0.2,0c0.3,0,0.6,0,0.9-0.1c0.2,0,0.4-0.1,0.6-0.2c0.2-0.1,0.3-0.3,0.4-0.5c0.1-0.2,0.2-0.4,0.2-0.7
	c0-0.3-0.1-0.5-0.2-0.8c-0.1-0.2-0.3-0.4-0.6-0.5c-0.3-0.1-0.6-0.2-1.1-0.2c-0.1,0-0.2,0-0.4,0c0,0.2,0,0.3,0,0.4l0,1v0.4
	C84.9,71.3,84.9,71.7,84.9,72.2 M93,68.8c0,0.1,0,0.1,0,0.1c0,0,0,0.1,0,0.1c-0.1,0-0.2,0-0.2,0c0,0-0.1,0-0.1,0h-0.1
	c-0.2,0-0.3,0-0.4,0.1c-0.1,0-0.1,0.1-0.1,0.2L91.9,70l0,2.8c0,1,0,1.6,0.1,1.9c0.1,0.2,0.2,0.4,0.3,0.6c0.1,0.2,0.4,0.3,0.7,0.4
	c0.3,0.1,0.6,0.2,0.9,0.2c0.6,0,1.1-0.1,1.5-0.3c0.3-0.2,0.6-0.4,0.7-0.8c0.1-0.3,0.2-0.8,0.2-1.5c0,0,0-0.2,0-0.4v-0.2
	c0-0.1,0-0.2,0-0.4c0-0.2,0-0.3,0-0.3l-0.1-1.6c0-0.5-0.1-0.9-0.1-1c0-0.1-0.1-0.2-0.2-0.2c-0.1-0.1-0.4-0.2-0.8-0.3
	c0-0.1,0-0.1,0-0.2c0.1,0,0.3,0,0.4,0c0.1,0,0.3,0,0.5,0c0.2,0,0.4,0,0.4,0l0.9,0h0.2l0,0.2c-0.5,0.1-0.7,0.1-0.8,0.2
	c-0.1,0.1-0.1,0.2-0.1,0.4c0,0.1,0,0.4,0,0.8l0,1.2l0,0.5l0,0.6c0,0.7,0,1.2-0.1,1.5c-0.1,0.4-0.1,0.7-0.3,0.9
	c-0.1,0.2-0.3,0.4-0.5,0.6c-0.2,0.2-0.5,0.3-0.8,0.4c-0.3,0.1-0.7,0.2-1,0.2c-0.5,0-0.9,0-1.2-0.1c-0.4-0.1-0.8-0.3-1-0.5
	c-0.3-0.2-0.4-0.4-0.5-0.6c-0.1-0.3-0.2-0.7-0.2-1.2v-0.4l0-1.6l0-1.3v-0.9c0-0.2,0-0.4-0.1-0.5c0-0.1-0.1-0.1-0.2-0.1l-0.3,0
	c-0.2,0-0.4,0-0.5-0.1c0,0,0-0.1,0-0.1c0,0,0-0.1,0-0.1c0,0,0.1,0,0.1,0h0.1l0.4,0h0.9L93,68.8z M98,68.9c0.1,0,0.1,0,0.1,0
	c0.1,0,0.3,0,0.6,0c0.2,0,0.3,0,0.3,0c0.1,0,0.2,0,0.5,0l1-0.1c0.3,0,0.5,0,0.9,0c0.6,0,1.1,0.1,1.4,0.2c0.3,0.2,0.6,0.4,0.8,0.8
	c0.2,0.4,0.3,0.7,0.3,1.1c0,0.6-0.2,1.1-0.6,1.5c-0.4,0.4-1,0.6-1.7,0.6c-0.2,0-0.4,0-0.5-0.1c-0.1,0-0.3-0.1-0.4-0.2
	c-0.1-0.1-0.1-0.1-0.1-0.2c0,0,0,0,0.1-0.1c0.1,0,0.1,0,0.2,0c0.1,0,0.3,0.1,0.5,0.1c0.3,0,0.6-0.1,0.8-0.2c0.3-0.1,0.5-0.3,0.6-0.6
	c0.1-0.3,0.2-0.6,0.2-0.8c0-0.3-0.1-0.6-0.2-0.8c-0.1-0.3-0.3-0.5-0.6-0.7c-0.1-0.1-0.3-0.2-0.6-0.2c-0.3-0.1-0.5-0.1-0.6-0.1
	c-0.5,0-0.7,0-0.8,0.1l0,0.1l0,0.6l0,0.1c0,0.1,0,0.2,0,0.5c0,0.8,0,1.2,0,1.4v0.3l0.1,2.5c0,0,0,0.1,0,0.2c0,0.1,0,0.2,0,0.3
	c0,0.2,0,0.3,0,0.4c0.1,0,0.4,0.1,0.8,0.2c0.2,0.1,0.3,0.1,0.3,0.1c0,0,0,0,0.1,0.1c0,0.1,0,0.1-0.1,0.1c0,0-0.1,0-0.1,0
	c0,0-0.1,0-0.3,0c-0.3,0-0.6,0-0.8,0l-1,0l-0.6,0c0,0-0.1,0-0.3,0l0-0.1l0.7-0.1c0.1,0,0.2-0.1,0.2-0.1c0-0.1,0.1-0.2,0.1-0.3
	c0,0,0-0.1,0-0.2c0-0.1,0-0.2,0-0.3c0-0.4,0-1.4-0.1-2.8c0-0.7,0-1.4,0-2v-0.1c0-0.3,0-0.4-0.1-0.5c-0.1-0.1-0.5-0.2-1-0.3
	c0-0.1,0-0.1,0-0.1C98,68.9,98,68.9,98,68.9 M104.8,72.4c0-0.4,0-0.7,0.1-1c0.1-0.3,0.2-0.6,0.5-1c0.2-0.3,0.5-0.6,0.8-0.9
	c0.3-0.2,0.7-0.4,1.3-0.6c0.4-0.1,0.9-0.2,1.4-0.2c0.4,0,0.8,0.1,1.1,0.2c0.4,0.1,0.7,0.2,1,0.4c0.3,0.2,0.6,0.5,0.9,0.9
	c0.2,0.3,0.4,0.6,0.5,0.9c0.1,0.4,0.2,0.8,0.2,1.3c0,0.5,0,0.9-0.1,1.2c-0.1,0.3-0.3,0.6-0.5,1c-0.2,0.3-0.5,0.5-0.9,0.9
	c-0.3,0.2-0.6,0.4-1.1,0.5c-0.4,0.1-0.9,0.2-1.4,0.2c-0.5,0-0.9-0.1-1.3-0.2c-0.4-0.1-0.7-0.3-1-0.4c-0.3-0.2-0.5-0.4-0.8-0.7
	c-0.3-0.3-0.5-0.7-0.6-1.1C104.8,73.3,104.8,72.9,104.8,72.4 M108.6,75.9c0.3,0,0.6,0,1-0.1c0.3-0.1,0.6-0.2,0.9-0.4
	c0.3-0.2,0.5-0.4,0.6-0.7c0.1-0.3,0.3-0.6,0.4-1c0.1-0.4,0.1-0.8,0.1-1.2c0-0.5-0.1-1-0.2-1.5c-0.1-0.4-0.3-0.7-0.6-1
	c-0.3-0.3-0.6-0.5-0.9-0.7c-0.4-0.2-0.8-0.2-1.2-0.2c-0.3,0-0.7,0.1-1,0.2c-0.3,0.1-0.6,0.3-0.8,0.4c-0.2,0.2-0.4,0.4-0.6,0.7
	c-0.2,0.3-0.3,0.7-0.4,1.1c-0.1,0.4-0.1,0.7-0.1,1c0,0.3,0,0.7,0.1,1c0.1,0.4,0.2,0.7,0.4,1c0.2,0.3,0.4,0.5,0.6,0.8
	c0.2,0.2,0.5,0.4,0.8,0.5C108,75.8,108.3,75.9,108.6,75.9"/>
<path class="st1" d="M116.1,75.9l0-0.4c0.5-0.1,0.8-0.2,0.9-0.3c0.1-0.1,0.1-0.3,0.2-0.7l0.1-2l0.1-2c0-0.1,0-0.2,0-0.2
	c0-0.5,0-0.8-0.1-0.9c-0.1-0.1-0.3-0.2-0.7-0.2c-0.1,0-0.2,0-0.2-0.1c0-0.1,0-0.2,0-0.2v-0.2c0.1,0,0.3,0,0.5,0l1.6,0.1
	c0,0,0.1,0,0.2,0l0.3,0c0.1,0.1,0.1,0.2,0.2,0.3c0.1,0.3,0.3,0.7,0.5,1.2l0.1,0.2l0.9,1.9c0,0,0.1,0.1,0.1,0.2
	c0.1,0.1,0.1,0.3,0.2,0.4c0.1,0.1,0.1,0.3,0.2,0.4c0.1,0.1,0.1,0.3,0.2,0.4c0.1-0.1,0.1-0.2,0.2-0.3c0.2-0.3,0.3-0.7,0.4-0.9
	c0.2-0.5,0.6-1.3,1-2.3c0.1-0.2,0.2-0.4,0.3-0.8c0.2-0.3,0.2-0.5,0.3-0.5c0,0,0.1,0,0.2,0c0,0,0.1,0,0.2,0c0.2,0,0.4,0,0.7,0
	c0.4,0,0.7,0,0.9,0c0.2,0,0.4,0,0.4,0c0,0,0.1,0,0.1,0c0,0.1,0,0.1,0,0.1l0,0.2c0,0,0,0.1,0,0.2c-0.4,0.1-0.6,0.1-0.9,0.2
	c-0.1,0.1-0.2,0.2-0.2,0.3v0.1l0.1,1.7c0,0.2,0,0.9,0.1,2.3c0,0.3,0,0.7,0.1,1.2c0,0.1,0,0.1,0,0.1c0,0.1,0,0.1,0.1,0.2
	c0,0,0.4,0.1,1,0.3c0,0.1,0,0.1,0,0.1c0,0.1,0,0.2,0,0.2c-0.1,0-0.4,0-0.8-0.1c-0.4,0-0.8-0.1-1.1-0.1c-0.5,0-1.1,0-1.6,0.1
	c-0.1,0-0.1,0-0.2,0l0-0.4c0.1-0.1,0.4-0.1,0.6-0.2c0.2,0,0.3-0.1,0.3-0.2c0-0.1,0.1-0.3,0.1-0.6c0-0.1,0-0.2,0-0.3
	c0-0.4,0-0.9,0-1.6l-0.1-2c0-0.3,0-0.5,0-0.6l-1.4,3.2c0,0.1-0.1,0.2-0.1,0.3c-0.1,0.2-0.1,0.3-0.2,0.4c-0.3,0.7-0.5,1.2-0.6,1.6
	c0,0.1-0.1,0.2-0.1,0.4l-0.4,0l-0.3-0.9c-0.1-0.2-0.2-0.6-0.5-1c-0.1-0.3-0.2-0.5-0.3-0.6c0-0.1-0.1-0.1-0.1-0.2l-0.1-0.1
	c0,0,0,0,0-0.1l-0.8-1.8l-0.5-1.1l-0.1,2.7l0,1.7c0,0.3,0.1,0.5,0.2,0.6c0.1,0.1,0.3,0.2,0.7,0.3l0.3,0.1V76c-0.2,0-0.5,0-0.7-0.1
	c-0.2,0-0.6,0-1,0C117.2,75.9,116.8,75.9,116.1,75.9 M126.2,75.9L126.2,75.9c0.3,0,0.6,0,0.9-0.1l0.2,0c0.9,0.1,1.4,0.1,1.7,0.1
	c0,0,0-0.1,0-0.1c0,0,0-0.1,0-0.3c-0.2,0-0.4-0.1-0.4-0.1c-0.2,0-0.4-0.1-0.5-0.2c-0.1,0-0.1-0.1-0.1-0.2c0-0.1,0-0.2,0.1-0.4
	c0.2-0.7,0.4-1.1,0.5-1.3l2.1,0l0.4,1.1l0.2,0.6c0,0,0,0.1,0,0.2c0,0.1,0,0.1-0.1,0.1c0,0-0.1,0.1-0.3,0.1l-0.6,0.1
	c0,0.1,0,0.2,0,0.4l0.3,0l1-0.1c0.1,0,0.3,0,0.6,0c0.3,0,0.6,0,0.9,0c0.3,0,0.6,0,0.9,0c0-0.1,0-0.1,0-0.1c0-0.1,0-0.2,0-0.3
	c-0.2-0.1-0.3-0.1-0.5-0.1c-0.1,0-0.2-0.1-0.3-0.1c0,0-0.1-0.1-0.2-0.3c-0.1-0.3-0.2-0.5-0.3-0.7c-0.1-0.4-0.2-0.6-0.3-0.8
	c-0.1-0.3-0.3-0.7-0.5-1.1c-0.2-0.5-0.4-0.9-0.6-1.4l-1-2.3l-0.1-0.1h-0.3h-0.4l-1.3,3.5l-1.1,3c-0.1,0.2-0.2,0.3-0.2,0.3
	c-0.1,0-0.2,0.1-0.5,0.1c-0.2,0-0.3,0.1-0.4,0.1L126.2,75.9z M128.9,72.8l0.8-2.2c0.1,0.2,0.3,0.6,0.4,1c0.2,0.4,0.3,0.8,0.4,1.2
	l-0.1,0C130.2,72.8,129.7,72.8,128.9,72.8 M134.4,75.6c0,0.1,0,0.1,0,0.2c0,0,0,0.1,0,0.2h0.2c0.2,0,0.4,0,0.6,0l0.8-0.1h0.2
	c0.2,0,0.6,0,1.4,0.1l0.2,0c0,0,0.1,0,0.1,0c0-0.1,0-0.2,0-0.4c-0.2-0.1-0.5-0.2-0.8-0.2c-0.2,0-0.3-0.1-0.4-0.1l0-1.1l0-1.2
	c0-0.1,0-0.3,0-0.4c0.2,0,0.3,0,0.4,0c0.3,0,0.5,0,0.6,0.1c0.1,0.1,0.2,0.3,0.4,0.6c0.4,0.8,0.7,1.4,0.8,1.7
	c0.1,0.1,0.2,0.3,0.3,0.6l0.2,0.4c0.1,0,0.1,0,0.2,0c0.2,0,0.4,0,0.4,0l0.6,0c0.2,0,0.3,0,0.4,0h0.2l0.3,0l0.1,0h0.2
	c0,0,0-0.1,0-0.1c0-0.1,0-0.1,0-0.2c-0.1-0.1-0.2-0.1-0.4-0.2c-0.2-0.1-0.4-0.2-0.4-0.2c-0.1-0.1-0.2-0.3-0.4-0.7l-0.9-1.5
	c-0.1-0.2-0.2-0.3-0.4-0.6c-0.1-0.1-0.1-0.2-0.2-0.3c0.5-0.2,0.9-0.4,1.1-0.7c0.2-0.3,0.4-0.7,0.4-1c0-0.5-0.2-1-0.7-1.3
	c-0.4-0.4-1.1-0.6-1.8-0.6c-0.5,0-0.9,0-1.4,0.1l-0.7,0l-0.3,0c0,0-0.2,0-0.4,0c-0.3,0-0.4,0-0.5,0c-0.2,0-0.3,0-0.5,0l0,0.1l0,0.3
	c0.1,0,0.3,0,0.6,0.1l0.3,0.1c0,0.2,0,0.7,0,1.5c0,0.4,0,0.7,0,1.1l0,0.3l0,0.5l0,0.7l0,1.2c0,0.3,0,0.5,0,0.5c0,0,0,0.1,0,0.2
	c-0.2,0.1-0.3,0.1-0.5,0.1C134.6,75.5,134.5,75.6,134.4,75.6 M136.9,72v-0.2c0-0.3,0-0.5,0-0.7l0-0.6l0-0.5l0-0.8l0-0.1
	c0.1,0,0.3,0,0.4,0c0.4,0,0.6,0,0.8,0.1c0.2,0.1,0.4,0.2,0.5,0.3c0.1,0.1,0.2,0.3,0.2,0.5c0.1,0.2,0.1,0.4,0.1,0.7
	c0,0.4-0.1,0.7-0.4,0.9c-0.3,0.2-0.7,0.3-1.4,0.3C137.2,72,137.1,72,136.9,72 M142.4,76c0.1,0,0.2,0,0.5,0c0.4,0,0.7-0.1,0.9-0.1
	l1,0c0.4,0,0.7,0.1,0.7,0.1c0.1,0,0.1,0,0.1,0c0,0,0.1,0,0.2,0c0,0,0.1,0,0.1,0c0-0.1,0-0.2,0-0.2c0-0.1,0-0.2,0-0.3
	c-0.2,0-0.3,0-0.3,0c-0.2,0-0.4-0.1-0.6-0.1c0-0.1,0-0.1,0-0.1l0-0.2l0-1.1l0-0.7l0-1.5c0-0.3,0-0.8,0-1.4c0-0.1,0-0.2,0-0.4
	c0-0.2,0-0.3,0-0.4c0.1,0,0.3-0.1,0.5-0.1c0.2,0,0.4-0.1,0.5-0.1c0-0.1,0-0.2,0-0.2c0-0.1,0-0.1,0-0.2c-0.1,0-0.2,0-0.5,0
	c-0.5,0-0.8,0.1-1.1,0.1c-0.1,0-0.2,0-0.4,0l-1.6-0.1l0,0.5c0,0,0.1,0,0.2,0c0.3,0,0.6,0.1,0.8,0.1c0,0.1,0,0.1,0,0.2l0,0.3l0,0.6
	l0,0.3l0,0.7c0,0,0,0.4,0,1.1l0,0.3l0,1.3l0,0.7c0,0.2,0,0.4-0.1,0.5c-0.1,0.1-0.3,0.1-0.5,0.2c-0.2,0-0.3,0.1-0.4,0.1V76z
	 M151.2,68.9c-0.4-0.1-0.6-0.2-0.8-0.2c-0.3-0.1-0.6-0.1-0.8-0.1c-0.8,0-1.5,0.2-1.9,0.6c-0.4,0.4-0.6,0.9-0.6,1.5
	c0,0.3,0.1,0.6,0.2,0.9c0.2,0.3,0.4,0.6,0.6,0.8c0.3,0.2,0.7,0.4,1.4,0.7c0.7,0.2,1.1,0.4,1.3,0.6c0.3,0.2,0.4,0.5,0.4,0.8
	c0,0.2-0.1,0.4-0.2,0.6c-0.2,0.2-0.3,0.3-0.6,0.4c-0.2,0.1-0.5,0.1-0.7,0.1c-0.2,0-0.4,0-0.6-0.1c-0.2-0.1-0.4-0.2-0.5-0.3
	c-0.1-0.1-0.3-0.3-0.4-0.5c-0.1-0.1-0.2-0.3-0.3-0.8l-0.5,0v0.2c0,0.1,0,0.3,0,0.5c0,0.5,0,0.7,0,0.8v0.1c0,0.1,0,0.1,0,0.1
	c0,0,0.2,0.1,0.4,0.1l0.7,0.2c0.4,0.1,0.7,0.1,0.9,0.1c0.4,0,0.7,0,1-0.1c0.3-0.1,0.5-0.2,0.7-0.3c0.2-0.2,0.4-0.3,0.5-0.4
	c0.2-0.2,0.3-0.3,0.3-0.5c0.1-0.3,0.2-0.7,0.2-1c0-0.3,0-0.6-0.1-0.8c-0.1-0.2-0.2-0.4-0.5-0.7c-0.2-0.2-0.4-0.3-0.7-0.5
	c-0.3-0.1-0.6-0.3-0.8-0.3c-0.7-0.2-1.1-0.4-1.3-0.6c-0.2-0.2-0.3-0.4-0.3-0.7c0-0.3,0.1-0.5,0.3-0.7c0.2-0.2,0.5-0.3,0.9-0.3
	c0.4,0,0.7,0.1,1,0.4c0.2,0.2,0.3,0.5,0.5,1l0.1,0l0.4,0l0.1,0c0-0.1,0-0.2,0-0.2c0-0.2,0-0.5-0.1-0.9
	C151.2,69.2,151.2,69,151.2,68.9 M152.9,68.4c0,0.1-0.1,0.2-0.1,0.4c-0.2,0.7-0.4,1.2-0.5,1.5c0,0.1,0.2,0.1,0.3,0.2
	c0,0,0.1-0.1,0.2-0.2c0.3-0.4,0.6-0.7,0.7-0.8c0.1-0.1,0.4-0.1,0.7-0.1c0.6,0,1,0,1.1,0c0,0,0.1,0,0.1,0c0,0,0,0,0,0.1
	c0,0.1,0,0.5,0,1.1l0,2.1c0,1,0,1.7,0,2.1c0,0.1,0,0.2-0.1,0.3c-0.2,0.1-0.4,0.2-0.8,0.3c-0.2,0-0.4,0.1-0.5,0.2v0l0,0.1
	c0,0,0,0.1,0,0.1c0.1,0,0.2,0,0.4,0c0.5,0,0.9-0.1,1-0.1c0.7,0,1.2,0,1.5,0c0.3,0,0.6,0,1,0c0.1,0,0.1,0,0.2,0c0-0.1,0-0.1,0-0.1
	c0,0,0-0.1,0-0.2c-0.1,0-0.2-0.1-0.3-0.1c-0.2-0.1-0.4-0.1-0.4-0.1c-0.2,0-0.3-0.1-0.3-0.1c-0.1-0.1-0.1-0.3-0.1-0.6l0-0.7l0-1.8
	v-1.6l0-0.7c0-0.1,0-0.2,0-0.4c0.2,0,0.3,0,0.4,0c0.7,0,1.1,0,1.2,0c0.1,0,0.1,0,0.2,0.1c0,0,0.1,0.2,0.2,0.5
	c0.1,0.3,0.2,0.5,0.3,0.6c0.1,0,0.2,0,0.4-0.1c0-0.1,0-0.1,0-0.2l0-0.3l0-0.5c0-0.5,0-0.9,0-1.2c-0.1,0-0.1,0-0.2,0l-0.2,0
	c0,0.1,0,0.1-0.1,0.1c-0.1,0.2-0.1,0.2-0.2,0.3l-0.3,0h-1.7l-1.3,0l-0.7,0l-0.1,0c-0.2,0-0.5,0-0.8,0c-0.5,0-0.7,0-0.8,0
	c0-0.1-0.1-0.2-0.2-0.4c0,0,0-0.1-0.1-0.1H152.9z M159.2,75.9h0.1c0.2,0,0.5,0,0.8-0.1l0.2,0c0.9,0.1,1.4,0.1,1.7,0.1
	c0,0,0-0.1,0-0.1c0,0,0-0.1,0-0.3c-0.2,0-0.4-0.1-0.4-0.1c-0.2,0-0.4-0.1-0.5-0.2c-0.1,0-0.1-0.1-0.1-0.2c0-0.1,0-0.2,0.1-0.4
	c0.2-0.7,0.4-1.1,0.5-1.3l2.1,0l0.4,1.1l0.2,0.6c0,0,0,0.1,0,0.2c0,0.1,0,0.1-0.1,0.1c0,0-0.1,0.1-0.3,0.1l-0.6,0.1
	c0,0.1,0,0.2,0,0.4l0.3,0l0.9-0.1c0.1,0,0.3,0,0.6,0c0.3,0,0.6,0,0.9,0c0.3,0,0.6,0,0.9,0c0-0.1,0-0.1,0-0.1c0-0.1,0-0.2,0-0.3
	c-0.2-0.1-0.3-0.1-0.5-0.1c-0.1,0-0.3-0.1-0.3-0.1c0,0-0.1-0.1-0.2-0.3c-0.1-0.3-0.2-0.5-0.3-0.7c-0.1-0.4-0.2-0.6-0.3-0.8
	c-0.1-0.3-0.3-0.7-0.5-1.1c-0.2-0.5-0.4-0.9-0.6-1.4l-1-2.3l0-0.1h-0.3h-0.4l-1.3,3.5l-1.1,3c-0.1,0.2-0.2,0.3-0.2,0.3
	c-0.1,0-0.2,0.1-0.5,0.1c-0.2,0-0.3,0.1-0.4,0.1L159.2,75.9z M161.8,72.8l0.8-2.2c0.1,0.2,0.3,0.6,0.4,1c0.2,0.4,0.3,0.8,0.4,1.2
	l-0.1,0C163.2,72.8,162.7,72.8,161.8,72.8"/>
<rect x="74.3" y="61.1" class="st1" width="92.8" height="0.5"/>
<path class="st0" d="M81.5,33.1h0.2c1.3,0,2.2,0,2.9,0.2c0.7,0.1,1.2,0.3,1.7,0.6c0.9,0.4,1.5,1.1,2,2c0.4,0.9,0.7,1.9,0.7,3.1
	c0,1.2-0.2,2.2-0.7,3c-0.5,0.9-1.1,1.6-2,2.1c-0.5,0.3-1.1,0.5-1.7,0.6C84,44.9,82.9,45,81.5,45v-2.5h0.2c1.7,0,2.8-0.3,3.5-0.8
	c0.7-0.5,1-1.4,1-2.7c0-1.2-0.3-2.1-1-2.6c-0.7-0.5-1.8-0.8-3.3-0.8h-0.4V33.1z M74,53.6V33.1h7.5v2.5h-4.6v6.9h4.6V45h-0.3h-4.3
	v8.6H74z"/>
<path class="st0" d="M92.1,45.8V33.1h2.8v12.8c0,1.9,0.4,3.3,1.3,4.2c0.9,0.9,2.2,1.4,4,1.4c1.8,0,3.2-0.5,4-1.4
	c0.9-0.9,1.3-2.3,1.3-4.2V33.1h2.9v12.7c0,2.8-0.7,4.8-2.2,6.3c-1.4,1.4-3.6,2.1-6.4,2.1c-2.6,0-4.6-0.7-5.9-2.1
	C92.7,50.7,92.1,48.6,92.1,45.8"/>
<path class="st0" d="M127.3,46h2.8c-0.1,2.5-1,4.5-2.6,6c-1.6,1.5-3.7,2.2-6.3,2.2c-2.9,0-5.2-1-6.9-2.9c-1.7-2-2.5-4.7-2.5-8.2
	c0-3.2,0.9-5.8,2.6-7.7c1.7-1.9,4.1-2.8,7.1-2.8c2.4,0,4.3,0.6,5.8,1.8c1.5,1.2,2.4,2.8,2.6,4.9h-2.8c-0.3-1.4-0.9-2.4-1.9-3.1
	c-1-0.7-2.3-1.1-3.9-1.1c-2.1,0-3.7,0.7-4.9,2.2c-1.2,1.4-1.8,3.5-1.8,6.2c0,2.5,0.6,4.5,1.8,6c1.2,1.5,2.8,2.3,4.8,2.3
	c1.7,0,3.2-0.5,4.2-1.6C126.6,49.1,127.2,47.7,127.3,46"/>
<path class="st0" d="M140.6,33.1h0.2c1.2,0,2.2,0,2.9,0.2c0.7,0.1,1.2,0.3,1.8,0.6c0.9,0.4,1.5,1.1,1.9,2c0.5,0.9,0.7,1.9,0.7,3.1
	c0,1.2-0.2,2.2-0.7,3c-0.4,0.9-1.1,1.6-2,2.1c-0.5,0.3-1.1,0.5-1.8,0.6c-0.6,0.1-1.6,0.2-3,0.2v-2.5h0.2c1.7,0,2.8-0.3,3.5-0.8
	c0.7-0.5,1-1.4,1-2.7c0-1.2-0.3-2.1-1-2.6c-0.7-0.5-1.7-0.8-3.3-0.8h-0.3V33.1z M133.2,53.6V33.1h7.5v2.5H136v6.9h4.6V45h-0.3H136
	v8.6H133.2z"/>
<path class="st0" d="M158.9,33.1h0.5c1.3,0,2.3,0,2.9,0.2c0.6,0.1,1.2,0.3,1.7,0.6c0.9,0.5,1.6,1.1,2,2c0.5,0.9,0.7,1.8,0.7,3
	c0,1.1-0.2,2.1-0.7,2.8c-0.5,0.8-1.2,1.4-2.1,1.8c0.8,0.2,1.4,0.6,1.8,1.1c0.3,0.5,0.5,1.4,0.6,2.7l0.2,3.4c0.1,0.7,0.2,1.3,0.3,1.6
	c0.2,0.4,0.3,0.6,0.7,0.8v0.5h-3.3c-0.2-0.4-0.4-1.3-0.5-2.7v-0.1l-0.2-2.7c-0.1-1.4-0.4-2.3-0.9-2.7c-0.5-0.4-1.7-0.6-3.6-0.6v-2.4
	c1.8,0,3-0.3,3.7-0.8c0.7-0.5,1.1-1.5,1.1-2.8c0-1.2-0.3-2.1-1-2.6c-0.7-0.5-1.9-0.7-3.8-0.7V33.1z M151.3,33.1h7.7v2.4h-4.9v6.9
	h4.9v2.4h-0.2h-4.6v8.8h-2.8V33.1z"/>
<path class="st1" d="M67.1,51.1v0.4c-0.1,0.7-0.3,1.5-0.7,2.2c-0.9,1.6-2.6,2.4-4.3,2.4v-0.7c1.5,0,2.9-0.8,3.7-2.1
	c1.2-2,0.5-4.5-1.6-5.7c-0.2-0.1-0.3-0.2-0.5-0.2c0,0,0.1-0.1,0.1-0.1v0h0v0l0,0c1.2-2,0.5-4.5-1.6-5.7c-0.1,0-0.1-0.1-0.2-0.1v-0.8
	c0.2,0.1,0.4,0.2,0.6,0.3c2.2,1.3,3.1,4,2.1,6.2C66.2,48,67,49.5,67.1,51.1 M62,53.8c0.9,0,1.8-0.4,2.3-1.3c0.7-1.2,0.3-2.8-1-3.5
	c-0.4-0.2-0.9-0.4-1.3-0.4v0.8c0.3,0,0.6,0.1,0.9,0.2c0.9,0.5,1.2,1.6,0.7,2.4c-0.3,0.6-0.9,0.9-1.5,0.9V53.8z M62,46.9
	c0.1-0.1,0.2-0.3,0.3-0.4c0.6-1,0.4-2.2-0.3-3V46.9z M62,36.4v-0.9l0.3-0.2L62,34.8v-1.5l1.4,2.4L62,36.4z M62,32.2v-2.3l1,1.8
	L62,32.2z M62,22v-1.8c0,0,0.1,0.1,0.1,0.1C62.4,20.8,62.4,21.5,62,22 M62,20.2V22c-0.1,0.2-0.3,0.4-0.5,0.5l-1.4,0.8v-0.9l1-0.6
	c0.4-0.2,0.5-0.7,0.3-1.1v0c-0.2-0.4-0.8-0.5-1.2-0.3l-0.1,0.1v-0.9C60.8,19.3,61.6,19.6,62,20.2 M62,29.8v2.3l-0.5,0.3l0.5,0.8v1.5
	l-2-3.3V30l1,1.7l0.7-0.4L60.5,29l-0.4,0.2v-1l0.7-0.4v0L62,29.8z M62,35.5L62,35.5l-1-1.6l-1,0.6v1.6l0.2,0.4l-0.2,0.1v0.9l1.3-0.7
	l-0.9-1.6l0.4-0.2l0.9,1.6l0.3-0.2V35.5z M62,40.6v0.8c-0.6-0.3-1.3-0.4-2-0.4v-0.8C60.7,40.2,61.4,40.4,62,40.6 M62,43.5v3.4
	c-0.5,0.6-1.2,0.9-2,0.9v-0.8c0.6,0,1.2-0.3,1.6-0.9c0.5-0.8,0.2-1.9-0.7-2.4c-0.3-0.2-0.6-0.2-0.9-0.2v-0.8c0.4,0,0.9,0.1,1.3,0.3
	C61.7,43.1,61.8,43.3,62,43.5 M62,48.7v0.8c-0.6,0-1.2,0.3-1.6,0.9c-0.5,0.8-0.2,1.9,0.7,2.4c0.3,0.1,0.6,0.2,0.9,0.2v0.8
	c-0.4,0-0.9-0.1-1.3-0.3c-0.2-0.1-0.4-0.3-0.6-0.5v-3.4C60.6,49,61.3,48.8,62,48.7 M62,55.5v0.7c-0.7,0-1.3-0.1-2-0.4V55
	C60.7,55.3,61.4,55.5,62,55.5 M60.1,27.2v-0.6l0.3,0.5L60.1,27.2z M60.1,19.6v0.9l-1.9,1.1v-0.9l1.8-1C59.9,19.7,60,19.6,60.1,19.6
	 M60.1,22.4v0.9l-1.5,0.8l1.5,2.5v0.6l-0.5,0.3l-0.7,0.4l0.4,0.7l0.8-0.5v1l-0.4,0.2l0.4,0.6v1.5l-1.9-3.4v-1.5l0.2,0.5l0.8-0.4
	l-1-1.7v-1.5L60.1,22.4z M60.1,34.5v1.6l-0.7-1.2L60.1,34.5z M60.1,36.6l-0.1,0.1L59,35.1l-0.9,0.5v1.8l0.1,0.2l-0.1,0.1v0.9
	l1.2-0.7l-0.9-1.6l0.3-0.2l0.9,1.6l0.4-0.2V36.6z M60.1,40.2V41c-0.7,0-1.3,0.2-1.9,0.5v-0.9C58.7,40.4,59.4,40.2,60.1,40.2
	 M60.1,42.6v0.8c-0.6,0-1.2,0.3-1.5,0.9c-0.5,0.8-0.2,1.9,0.7,2.4c0.3,0.2,0.6,0.2,0.9,0.2v0.8c-0.4,0-0.9-0.1-1.3-0.3
	c-0.3-0.2-0.5-0.3-0.7-0.5v-3.4C58.6,42.9,59.3,42.6,60.1,42.6 M60.1,49.6V53c-0.7-0.8-0.9-2-0.3-3C59.9,49.9,60,49.7,60.1,49.6
	 M60.1,55v0.9c-0.1-0.1-0.3-0.1-0.4-0.2c-0.4,0.6-1,1.1-1.6,1.5v-0.9c0.4-0.3,0.7-0.7,1-1.2c0.1-0.2,0.2-0.3,0.2-0.5
	c0.2,0.1,0.3,0.2,0.5,0.3C60,54.9,60,55,60.1,55 M58.1,34.5v-1.4l0.6,1L58.1,34.5z M58.1,30.2l0.1-0.1l-0.1-0.2V30.2z M58.1,20.7
	v0.9l-2.3,1.3l0.8,1.4l1.4-0.8V25l-0.3-0.5l-0.8,0.4l1,1.7v1.5l-2.7-4.5v-1.5L58.1,20.7z M58.1,29.9l-0.2-0.4l-0.8-1.3L57,28
	l-1.4,0.8l-0.1-0.2v1.2l1.3-0.7l0.4,0.7l-1.4,0.8l1.9,3.2l-0.8,0.4l-1.4-2.4v1.5l0.7,1.2l0.4,0.7l0.7-0.4l0.9-0.5v-1.4l-1.3-2.1
	l1.3-0.7V29.9z M58.1,35.6v1.8l-0.8-1.3L58.1,35.6z M58.1,37.7l-0.2,0.1L57,36.3l-1.5,0.9v0.4l0.7,1.3L55.9,39l-0.4-0.7v1.5l0.1,0.2
	l1.7-1l-0.9-1.6l0.4-0.2l0.9,1.6l0.5-0.3V37.7z M58.1,40.6v0.9c-0.7,0.4-1.3,0.9-1.7,1.6c-0.8,1.4-0.7,3.1,0.1,4.3l-1-0.6v-3.6
	c0.1-0.2,0.2-0.3,0.3-0.5C56.3,41.7,57.1,41,58.1,40.6 M58.1,43.5c-0.1,0.1-0.2,0.2-0.3,0.4c-0.6,1-0.4,2.2,0.3,3V43.5z M58.1,56.2
	v0.9c-0.8,0.5-1.7,0.7-2.7,0.7v-0.8C56.4,57.1,57.4,56.8,58.1,56.2 M55.5,55.5v-0.8c0.6,0,1.2-0.3,1.6-0.9c0.5-0.8,0.2-1.9-0.7-2.4
	c-0.3-0.2-0.6-0.2-0.9-0.2v-0.8c0.5,0,0.9,0.1,1.3,0.4c1.2,0.7,1.7,2.3,1,3.5C57.3,55.1,56.4,55.5,55.5,55.5 M55.5,48.8v-0.1
	l0.2,0.1H55.5z M55.5,22.2v1.5L55,22.9c-0.2-0.3-0.5-0.4-0.8-0.2l-1,0.6v-0.9l0.7-0.4C54.3,21.8,55,21.8,55.5,22.2L55.5,22.2z
	 M55.5,28.6v1.2l-0.1,0.1l-0.8-1.4L53.7,29l0.8,1.4l-1.4,0.8v-0.9l0.3-0.2l-0.3-0.5v-1.2l0.2-0.1l0.8-0.4l0.7-0.4L55.5,28.6z
	 M55.5,31.9l-0.1-0.1L55,31.1l-1.4,0.8l-0.4-0.7v1.5l0.1,0.2l1.4-0.8l0.7,1.3V31.9z M55.5,37.1v0.4l-0.2-0.3L55.5,37.1z M55.5,38.4
	l-2.3-3.9V36l0.1,0.1l-0.1,0v1l0.5-0.3l1.8,3V38.4z M55.5,43.2v3.6l-0.1-0.1l-2.1-1.2v-0.9l1.9,1.1C55,44.9,55.1,44,55.5,43.2
	 M55.5,48.7v0.1c-0.8,0-1.6,0.2-2.3,0.7v-0.9c0.1-0.1,0.2-0.1,0.3-0.1l-0.3-0.2v-0.9l1.1,0.6l0.2,0.1L55.5,48.7z M55.5,50.4v0.8
	c-0.6,0-1.2,0.3-1.5,0.9c-0.5,0.9-0.2,1.9,0.7,2.4c0.3,0.1,0.6,0.2,0.9,0.2v0.8c-0.4,0-0.9-0.1-1.3-0.3c-0.4-0.2-0.8-0.6-1-1v-2.5
	l0,0C53.7,50.9,54.6,50.4,55.5,50.4 M55.5,57.1v0.8c-0.8,0-1.5-0.2-2.3-0.5v-0.9c0.1,0,0.1,0.1,0.2,0.1C54,57,54.8,57.1,55.5,57.1
	 M53.2,22.4v0.9l-1.9,1.1v-0.9L53.2,22.4z M53.2,28.4v1.2l-0.1-0.2l-0.4-0.7L53.2,28.4z M53.2,30.2v0.9l-0.1,0l0.1,0.1v1.5l-1.1-1.9
	L53.2,30.2z M53.2,34.5l-1.9-3.2v1.5l0.2,0.2l-0.2,0.1v1l0.6-0.3l1.3,2.2V34.5z M53.2,36.2v1l-1,0.5l-0.9-1.5v-1.8l1.2,2.1
	L53.2,36.2z M53.2,44.6v0.9l-1.9-1v-0.9L53.2,44.6z M53.2,47.4v0.9l-1.9-1.1v-0.9L53.2,47.4z M53.2,48.6v0.9c-0.6,0.3-1,0.8-1.4,1.4
	c-0.2,0.4-0.4,0.9-0.5,1.3v-2C51.8,49.5,52.4,49,53.2,48.6 M53.2,51.7c-0.4,0.8-0.4,1.7,0,2.5V51.7z M53.2,56.5v0.9
	c-0.1-0.1-0.1-0.1-0.2-0.1c-0.7-0.4-1.3-0.9-1.7-1.5v-2C51.5,54.8,52.2,55.9,53.2,56.5 M51.3,23.5v0.9l-2.6,1.5v-0.9L51.3,23.5z
	 M51.3,31.3v1.5L51,32.3l-1.5,0.9l-0.8-1.3v-1.8l1.1,1.9l0.7-0.4l-1.3-2.2l-0.6,0.3v-0.9l0.2-0.1l-0.2-0.3v-1.5L51.3,31.3z
	 M51.3,33.1l-1.4,0.8h-1.2v0.8h1.1v17.7h0.6h-0.6c0,2-0.4,3.8-1.1,5.6v1.7c1-1.8,1.6-3.7,1.8-5.9c0.1,0.7,0.4,1.3,0.8,1.9v-2
	c0-0.1,0-0.3-0.1-0.4c0-0.4,0-0.7,0.1-1.1v-2c-0.1,0.1-0.1,0.2-0.2,0.3c-0.2,0.4-0.4,0.8-0.5,1.2v-4.9l0.7,0.4v-0.9L50.6,46v-1.9
	l0.7,0.4v-0.9l-0.7-0.4v-8.1l0.7,1.2v-1.8l-0.1-0.2l0.1-0.1V33.1z M48.7,24.9v0.9l-0.4,0.2v-0.9L48.7,24.9z M48.7,26.9v1.5l-0.4-0.7
	v-1.5L48.7,26.9z M48.7,28.8v0.9l-0.2,0.1l0.2,0.3v1.8c-0.2,0.2-0.3,0.3-0.4,0.5v-1.2v0v-0.1v-2L48.7,28.8z M48.7,34.7h-0.4v-0.8
	h0.4V34.7z M48.7,58v1.7c-0.1,0.3-0.3,0.5-0.4,0.8v-1.6C48.4,58.6,48.6,58.3,48.7,58 M48.3,25.2v0.9h0l0,0.1v1.5l-0.2-0.4l-3.3,1.9
	v-0.9l0.8-0.5h-0.8V27h1.6c-0.1-0.8-0.3-1.5-0.5-2.3c-0.3,0.2-0.7,0.3-1.1,0.5v-0.9c0.3-0.1,0.6-0.2,0.9-0.4
	c-0.2-0.6-0.4-1.1-0.5-1.6h-0.3v-2.6c1.2,2.3,2,4.7,2.4,7.2l0.5-0.3l-0.5-0.8L48.3,25.2z M48.3,29l-3.5,2v0.9l3-1.7l0.5,0.8V29z
	 M48.3,31.2v1.2c-0.6,0.6-1.1,1.1-1.7,1.6h1.7v0.8h-3.5v-0.8h0.5C46.4,33.1,47.4,32.2,48.3,31.2 M48.3,58.9v1.6
	c-1,1.5-2.1,2.9-3.5,4v-1C46.2,62.2,47.4,60.6,48.3,58.9 M44.8,56.9V43.4l2.7-1.6v13.5L44.8,56.9z M44.8,19.7v2.6h-6v-0.8h6
	c-0.3-0.6-0.5-1.2-0.8-1.8c-1.6,0.9-3.4,1.3-5.1,1.2v-0.8c1.6,0.1,3.3-0.2,4.8-1c-0.5-0.9-1-1.6-1.5-2.4v0h-3.2v-0.8h2.6
	c-0.4-0.5-0.8-1-1.2-1.4c-0.4,0.4-0.9,0.7-1.4,0.8v-0.9c0.3-0.1,0.6-0.3,0.9-0.5c-0.3-0.3-0.6-0.6-0.9-0.9v-1.1
	C41.2,14.1,43.2,16.7,44.8,19.7 M44.8,24.3v0.9c-1.5,0.5-3.1,0.9-4.6,0.9c-0.4,0-0.9,0-1.4-0.1v-0.8c0.5,0.1,0.9,0.1,1.4,0.1
	C41.7,25.3,43.3,24.9,44.8,24.3 M44.8,27v0.8h-3.6c0.1,0.8,0.3,1.5,0.7,2.1l2.9-1.6v0.9l-6,3.4v-0.9l2.4-1.4
	c-0.4-0.7-0.7-1.5-0.8-2.5h-1.6V27H44.8z M44.8,31l-5.1,2.9h-0.9v0.8h6v-0.8h-3.5l3.5-2V31z M44.8,43.4v13.5l-6,3.4V46.8L44.8,43.4z
	 M44.8,63.4v1c-1.7,1.4-3.8,2.5-6,3.1v-0.8C41,66.1,43.1,64.9,44.8,63.4 M38.7,45.6l2.9-1.7v-7.1l-2.9,1.6V45.6z M38.7,11.8v1.1
	c-1-0.9-2-1.8-3.1-2.6h-0.2V7.2h2.4V5.5H36h-0.7V2.3H36v0.8v1.7l1.7,0h0.8v3.2H38h-2v1.7C37,10.3,37.9,11,38.7,11.8 M38.7,14.4v0.9
	c-1.1,0.4-2.3,0.3-3.4-0.2v-0.9C36.4,14.8,37.6,14.9,38.7,14.4 M38.7,16.7h-3.4v-0.8h3.4V16.7z M38.7,20.1v0.8
	c-1.2-0.1-2.3-0.4-3.4-0.8v-0.8C36.4,19.7,37.6,20,38.7,20.1 M38.7,22.3h-3.4v-0.8h3.4V22.3z M38.7,25.2V26
	c-1.2-0.1-2.3-0.4-3.4-0.8v-0.9C36.4,24.8,37.6,25.1,38.7,25.2 M38.7,27.8h-3.4V27h3.4V27.8z M38.7,31.7v0.9l-2.4,1.4h2.4v0.8h-3.4
	v-1.1l0.5-0.3c-0.2-0.3-0.3-0.6-0.5-0.9v-2.2c0.3,0.9,0.7,1.8,1.2,2.7L38.7,31.7z M38.7,38.4v7.2l-3.4,1.9v-7.2L38.7,38.4z
	 M38.7,46.8l-3.4,1.9v13.5l3.4-2V46.8z M38.7,66.7v0.8c-1.1,0.3-2.2,0.5-3.4,0.5v-0.8C36.5,67.2,37.7,67,38.7,66.7 M35.4,2.3v3.2
	h-0.1V3.1h-1.7V2.3H35.4z M35.4,7.2v3.2h-1.8V9.6h1.7V7.2H35.4z M35.4,14.2v0.9c-0.4-0.2-0.6-0.4-0.9-0.6c-0.3,0.2-0.6,0.4-0.9,0.6
	v-0.9c0.3-0.2,0.6-0.5,0.9-0.8C34.7,13.7,35,14,35.4,14.2 M35.4,16.7h-1.8v-0.8h1.8V16.7z M35.4,19.2v0.8c-0.3-0.1-0.6-0.3-0.9-0.5
	c-0.3,0.2-0.6,0.3-0.9,0.4v-0.9c0.3-0.1,0.6-0.3,0.9-0.4C34.7,18.9,35,19.1,35.4,19.2 M35.4,22.3h-1.8v-0.8h1.8V22.3z M35.4,24.3
	v0.9c-0.3-0.1-0.6-0.3-0.9-0.4c-0.3,0.1-0.6,0.2-0.9,0.4v-0.9c0.3-0.1,0.6-0.2,0.9-0.4C34.7,24,35,24.2,35.4,24.3 M35.4,27v0.8h-0.5
	c0.1,0.8,0.2,1.6,0.5,2.4v2.2c-0.4-0.8-0.7-1.6-0.9-2.4c-0.2,0.8-0.5,1.6-0.9,2.4v-2.2c0.2-0.8,0.4-1.6,0.5-2.4h-0.5V27H35.4z
	 M35.4,33.6v1.1h-1.8v-1.1l0.6,0.3h0.6L35.4,33.6z M35.4,40.4v7.2L35,47.7v-7.2L35.4,40.4z M35.4,48.7v13.5L35,62.4V48.9L35.4,48.7z
	 M35.4,67.3v0.8c-0.3,0-0.6,0-0.9,0c-0.3,0-0.6,0-0.9,0v-0.8c0.3,0,0.6,0,0.9,0C34.8,67.3,35.1,67.3,35.4,67.3 M33.6,62.3V48.7
	l0.4,0.2v13.5L33.6,62.3z M33.6,47.6v-7.2l0.3,0.2v7.2L33.6,47.6z M33.6,2.3v0.8v2.4h-0.8h-1.7v1.7h2.5v2.4v0.8h-0.4
	c-1.1,0.8-2.1,1.6-3,2.5v-1.1c0.8-0.7,1.7-1.4,2.6-2.1V7.9h-2h-0.5V4.8h0.8l1.7,0V3.1V2.3H33.6z M33.6,14.1V15
	c-1,0.5-2.3,0.6-3.4,0.3v-0.9C31.3,14.9,32.6,14.8,33.6,14.1 M33.6,16.7h-3.4v-0.8h3.4V16.7z M33.6,19.2V20
	c-1.1,0.5-2.2,0.8-3.4,0.8v-0.8C31.4,20,32.5,19.7,33.6,19.2 M33.6,22.3h-3.4v-0.8h3.4V22.3z M33.6,24.3v0.9
	c-1.1,0.4-2.2,0.7-3.4,0.9v-0.8C31.4,25,32.5,24.7,33.6,24.3 M33.6,27.8h-3.4V27h3.4V27.8z M33.6,30.2v2.2c-0.1,0.3-0.3,0.6-0.5,0.9
	l0.5,0.3v1.1h-3.4v-0.8h2.4l-2.4-1.4v-0.9l2.2,1.2C32.9,32,33.3,31.2,33.6,30.2 M33.6,40.4v7.2l-3.4-2v-7.1L33.6,40.4z M33.6,48.7
	l-3.4-1.9v13.5l3.4,2V48.7z M33.6,67.3v0.8c-1.2-0.1-2.3-0.2-3.4-0.5v-0.8C31.3,67,32.4,67.2,33.6,67.3 M30.2,11.7v1.1
	c-0.4,0.3-0.7,0.7-1,1c0.3,0.3,0.7,0.5,1,0.6v0.9c-0.6-0.2-1.1-0.5-1.6-0.9c-0.4,0.5-0.8,0.9-1.2,1.4h2.8v0.8h-3.4
	c-0.5,0.8-1.1,1.6-1.5,2.4c1.5,0.8,3.2,1.2,4.9,1v0.8c-1.8,0.1-3.6-0.2-5.2-1.2c-0.3,0.6-0.5,1.1-0.8,1.7v-1.9
	C25.7,16.6,27.7,13.9,30.2,11.7 M30.2,22.3h-6v-0.8h6V22.3z M30.2,25.2V26c-0.5,0.1-1,0.1-1.5,0.1c-1.5,0-3.1-0.3-4.6-0.9v-0.9
	c1.4,0.6,3,0.9,4.6,0.9C29.2,25.3,29.7,25.3,30.2,25.2 M30.2,27v0.8h-1.7c-0.1,0.9-0.3,1.8-0.8,2.5l2.4,1.4v0.9l-6-3.4v-0.9l2.9,1.6
	c0.4-0.6,0.6-1.3,0.7-2.1h-3.6V27H30.2z M30.2,33.9h-0.9L24.2,31v0.9l3.6,2h-3.6v0.8h6V33.9z M30.2,38.4v7.1l-2.9-1.7v-7.1
	L30.2,38.4z M30.2,46.8l-6-3.5v13.5l6,3.4V46.8z M30.2,66.7v0.8c-2.2-0.6-4.3-1.6-6-3.1v-1C25.9,65,27.9,66.1,30.2,66.7 M24.2,19.5
	v1.9c0,0.1-0.1,0.1-0.1,0.2h0.1v0.8h-0.4c-0.2,0.5-0.4,1-0.6,1.6c0.3,0.2,0.6,0.3,1,0.4v0.9c-0.4-0.2-0.8-0.3-1.2-0.5
	c-0.2,0.8-0.4,1.5-0.5,2.3h1.7v0.8h-0.8l0.8,0.4v0.9l-2.7-1.5v-0.9l0.2,0.1C22.1,24.3,23,21.8,24.2,19.5 M24.2,31v0.9l-2.7-1.5v-0.9
	L24.2,31z M24.2,33.9v0.8h-2.7v-0.8h0.9c-0.3-0.2-0.6-0.5-0.9-0.7v-1.1c0.7,0.7,1.4,1.3,2.1,1.8H24.2z M24.2,43.3v13.5l-2.7-1.6
	V41.8L24.2,43.3z M24.2,63.5v1c-1-0.8-1.9-1.8-2.7-2.8v-1.3C22.2,61.5,23.1,62.5,24.2,63.5 M21.4,26.3l0.3-0.5l-0.3-0.2V26.3z
	 M21.4,25.6v0.7l-0.2,0.3l0.2,0.1v0.9l-0.5-0.3l-0.2,0.4v-1.5l0.1-0.1l-0.1,0v-0.9L21.4,25.6z M21.4,29.5v0.9l-0.2-0.1l-0.5,0.9V29
	L21.4,29.5z M21.4,32.1v1.1c-0.3-0.2-0.5-0.5-0.8-0.8v-1.2C20.9,31.6,21.2,31.8,21.4,32.1 M21.4,34.7h-0.8v-0.8h0.8V34.7z
	 M21.4,60.3v1.3c-0.3-0.4-0.5-0.8-0.8-1.2v-1.6C20.9,59.4,21.2,59.9,21.4,60.3 M20.6,25.2V26l-0.4-0.2v-0.9L20.6,25.2z M20.6,26.2
	v1.5l-0.4,0.7v-1.5L20.6,26.2z M20.6,29v2.1l0,0.1l0,0.1v1.2c-0.1-0.2-0.3-0.3-0.4-0.5v-1.9l0.2-0.3l-0.2-0.1v-0.9L20.6,29z
	 M20.6,34.7h-0.4v-0.8h0.4V34.7z M20.6,58.9v1.6c-0.1-0.2-0.3-0.5-0.4-0.7v-1.7C20.4,58.4,20.5,58.6,20.6,58.9 M20.2,24.9v0.9
	l-2.6-1.5v-0.9L20.2,24.9z M20.2,26.9v1.5l-0.2,0.3l0.2,0.1v0.9l-0.5-0.3l-1.3,2.2l0.7,0.4l1.1-1.9V32l0-0.1l-0.7,1.3h0l-1.5-0.9
	l-0.3,0.5v-1.5L20.2,26.9z M20.2,33.9H19l-1.4-0.8v1l0.1,0.1l-0.1,0.2v1.8l0.6-1.1v8.1l-0.6,0.4v0.9l0.6-0.4V46l-0.6,0.4v0.9
	l0.6-0.4v4.7c-0.1-0.4-0.3-0.7-0.5-1c-0.1-0.1-0.1-0.2-0.2-0.3v2c0.1,0.4,0.1,0.7,0.1,1.1c0,0.1,0,0.3-0.1,0.4v2
	c0.4-0.5,0.6-1.1,0.7-1.7c0.2,2.1,0.9,4,1.9,5.8v-1.7c-0.7-1.8-1.2-3.7-1.2-5.7h-0.6H19V34.7h1.2V33.9z M17.6,23.5v0.9l-1.9-1.1
	v-0.9L17.6,23.5z M17.6,31.3v1.5l-0.2,0.2l0.2,0.1v1L17,33.8L15.7,36v-1.5L17.6,31.3z M17.6,34.5l-1.2,2.1l-0.7-0.4v1l1,0.5l0.9-1.5
	V34.5z M17.6,43.6v0.9l-1.9,1v-0.9L17.6,43.6z M17.6,46.3v0.9l-1.9,1.1v-0.9L17.6,46.3z M17.6,50.2v2c-0.1-0.4-0.2-0.9-0.5-1.3
	c-0.4-0.6-0.9-1.1-1.4-1.4v-0.9C16.5,49,17.1,49.5,17.6,50.2 M17.6,53.7v2c-0.4,0.6-1,1.1-1.7,1.5c-0.1,0.1-0.1,0.1-0.2,0.1v-0.9
	C16.8,55.9,17.4,54.8,17.6,53.7 M15.7,54.2c0.4-0.7,0.4-1.7,0-2.5V54.2z M15.7,32.8l1.1-1.9l-1.1-0.6v0.9l0.1,0l-0.1,0.1V32.8z
	 M15.7,29.6v-1.2l0.5,0.3l-0.4,0.7L15.7,29.6z M15.7,22.4v0.9l-1-0.6c-0.3-0.2-0.6-0.1-0.8,0.2l-0.5,0.8v-1.5l0,0
	c0.4-0.4,1.1-0.5,1.6-0.2L15.7,22.4z M15.7,28.4v1.2l-0.3,0.5l0.3,0.2v0.9l-1.4-0.8l0.8-1.4l-0.8-0.4l-0.8,1.4l-0.1-0.1v-1.2
	l0.7-1.1l0.7,0.4l0.8,0.4L15.7,28.4z M15.7,31.2l-0.4,0.7l-1.4-0.8l-0.4,0.7l-0.1,0.1v1.5l0.7-1.3l1.4,0.8l0.1-0.2V31.2z M15.7,34.5
	V36l-0.1,0.1l0.1,0v1l-0.5-0.3l-1.8,3v-1.5L15.7,34.5z M15.7,44.6v0.9l-2.1,1.2l-0.1,0.1v-3.6c0.4,0.8,0.5,1.7,0.4,2.5L15.7,44.6z
	 M15.7,47.4v0.9l-0.3,0.2c0.1,0,0.2,0.1,0.3,0.1v0.9c-0.7-0.4-1.5-0.7-2.3-0.7v-0.1l1-0.5l0.2-0.1L15.7,47.4z M15.7,51.7v2.5
	c-0.2,0.4-0.5,0.7-1,1c-0.4,0.2-0.8,0.3-1.3,0.3v-0.8c0.3,0,0.6-0.1,0.9-0.2c0.9-0.5,1.2-1.6,0.7-2.4c-0.3-0.5-0.9-0.9-1.5-0.9v-0.8
	C14.3,50.4,15.2,50.9,15.7,51.7L15.7,51.7z M15.7,56.5v0.9c-0.7,0.4-1.5,0.5-2.3,0.5v-0.8c0.7,0,1.5-0.2,2.1-0.5
	C15.6,56.5,15.7,56.5,15.7,56.5 M13.5,37.6l0.2-0.3l-0.2-0.1V37.6z M13.1,22.9l-0.8,1.4l-1.4-0.8V25l0.3-0.5l0.7,0.4l-1,1.7v1.5
	l2.7-4.5v-1.5l-2.7-1.5v0.9L13.1,22.9z M13.5,28.6v1.2l-1.3-0.7l-0.4,0.7l1.4,0.8l-1.9,3.2l0.8,0.4l1.4-2.4v1.5l-0.7,1.2l-0.4,0.7
	l-0.7-0.4l-0.9-0.5v-1.4l1.3-2.1l-1.3-0.7v-0.4l0.2-0.4l0.8-1.3l0.1-0.1l1.4,0.8L13.5,28.6z M13.5,37.1v0.4l-0.7,1.3l0.3,0.2
	l0.4-0.7v1.5l-0.1,0.2l-1.7-1l0.9-1.6l-0.4-0.2l-0.9,1.6l-0.5-0.3v-0.9l0.2,0.1l0.9-1.6L13.5,37.1z M13.5,43.2v3.6l-1,0.6
	c0.8-1.3,0.9-2.9,0.1-4.3c-0.4-0.7-1-1.2-1.7-1.6v-0.9c1,0.4,1.8,1.1,2.4,2.1C13.3,42.9,13.4,43,13.5,43.2 M13.5,48.7v0.1h-0.2
	L13.5,48.7z M13.5,50.4v0.8c-0.3,0-0.6,0.1-0.9,0.2c-0.9,0.5-1.2,1.6-0.7,2.4c0.3,0.6,0.9,0.9,1.6,0.9v0.8c-0.9,0-1.8-0.4-2.3-1.3
	c-0.7-1.2-0.3-2.8,1-3.5C12.6,50.5,13,50.4,13.5,50.4 M13.5,57.1v0.8c-0.9,0-1.9-0.2-2.7-0.7v-0.9C11.6,56.8,12.5,57.1,13.5,57.1
	 M10.8,46.8c0.7-0.8,0.9-2,0.3-3c-0.1-0.1-0.2-0.3-0.3-0.4V46.8z M10.8,37.4l0.8-1.3l-0.8-0.4V37.4z M10.8,23.5l-1.9-1.1v0.9
	l1.5,0.8l-1.5,2.5v0.6l0.5,0.3l0.7,0.4l-0.4,0.7l-0.8-0.5v1l0.4,0.2L8.9,30v1.5l1.9-3.4v-1.5l-0.3,0.5l-0.7-0.4l1-1.7V23.5z
	 M8.9,20.5l1.9,1.1v-0.9l-1.8-1c-0.1,0-0.1-0.1-0.2-0.1V20.5z M10.8,29.9v0.4l-0.1-0.1L10.8,29.9z M10.8,33.1v1.4l-0.6-0.4
	L10.8,33.1z M10.8,35.6v1.8l-0.1,0.2l0.1,0.1v0.9l-1.2-0.7l0.9-1.6l-0.3-0.2l-0.9,1.6l-0.4-0.2v-0.9L9,36.7l0.9-1.6L10.8,35.6z
	 M10.8,40.6v0.9C10.2,41.2,9.5,41,8.9,41v-0.8C9.5,40.2,10.2,40.4,10.8,40.6 M10.8,43.5v3.4c-0.2,0.2-0.4,0.4-0.7,0.5
	c-0.4,0.2-0.8,0.3-1.3,0.3v-0.8c0.3,0,0.6-0.1,0.9-0.2c0.8-0.5,1.2-1.6,0.7-2.4c-0.3-0.5-0.9-0.9-1.5-0.9v-0.8
	C9.6,42.6,10.3,42.9,10.8,43.5 M10.8,56.2v0.9c-0.6-0.4-1.2-0.9-1.6-1.5c-0.1,0.1-0.2,0.1-0.4,0.2V55C8.9,55,9,54.9,9,54.9
	c0.2-0.1,0.4-0.2,0.5-0.3c0.1,0.2,0.1,0.3,0.2,0.5C10.1,55.5,10.4,55.9,10.8,56.2 M8.9,53v-3.4C9,49.7,9.1,49.9,9.2,50
	C9.8,51,9.6,52.2,8.9,53 M8.9,36.1l0.7-1.2l-0.7-0.4V36.1z M8.9,22.4l-1-0.6c-0.4-0.2-0.5-0.7-0.3-1.1v0c0.2-0.4,0.7-0.5,1.2-0.3
	l0.1,0.1v-0.9c-0.7-0.3-1.5-0.1-2,0.6V22c0.1,0.2,0.3,0.4,0.5,0.5l1.4,0.8V22.4z M8.9,26.5v0.6L8.6,27L8.9,26.5z M8.9,28.2v1L8.5,29
	l-1.4,2.3l0.7,0.4l1-1.7v1.5l-2,3.3v-1.5l0.5-0.8l-0.5-0.3v-2.3l1.2-2.1v0L8.9,28.2z M8.9,34.5l-1-0.6l-0.9,1.6h0v0.9l0.3,0.2
	L8.1,35l0.4,0.2l-0.9,1.6l1.3,0.7v-0.9l-0.2-0.1l0.2-0.4V34.5z M8.9,40.2V41c-0.7,0-1.3,0.1-2,0.4v-0.8C7.5,40.4,8.2,40.2,8.9,40.2
	 M8.9,42.6v0.8c-0.3,0-0.6,0.1-0.9,0.2c-0.9,0.5-1.2,1.5-0.7,2.4c0.3,0.5,0.9,0.9,1.6,0.9v0.8c-0.7,0-1.5-0.3-2-0.9v-3.4
	c0.2-0.2,0.4-0.4,0.6-0.5C7.9,42.7,8.4,42.6,8.9,42.6 M8.9,49.6V53c-0.2,0.2-0.4,0.4-0.6,0.5c-0.4,0.2-0.9,0.3-1.3,0.3v-0.8
	c0.3,0,0.6-0.1,0.9-0.2c0.9-0.5,1.2-1.6,0.7-2.4c-0.3-0.6-0.9-0.9-1.6-0.9v-0.8C7.6,48.8,8.3,49,8.9,49.6 M8.9,55v0.9
	c-0.6,0.2-1.3,0.4-2,0.4v-0.7C7.6,55.5,8.2,55.3,8.9,55 M6.9,20.2V22C6.6,21.5,6.5,20.8,6.9,20.2C6.8,20.3,6.9,20.2,6.9,20.2
	 M6.9,29.8v2.3l-1-0.6L6.9,29.8z M6.9,33.3v1.5l-0.3,0.5l0.3,0.2v0.9l-1.4-0.8L6.9,33.3z M6.9,40.6v0.8c-0.1,0-0.1,0.1-0.2,0.1
	c-2,1.2-2.7,3.7-1.5,5.7l0,0v0h0v0c0,0,0.1,0.1,0.1,0.1c-0.2,0.1-0.4,0.2-0.5,0.2c-2,1.2-2.7,3.7-1.6,5.7c0.8,1.3,2.2,2.1,3.7,2.1
	v0.7c-1.7,0-3.4-0.9-4.3-2.4c-0.4-0.7-0.6-1.5-0.7-2.2v-0.4c0.1-1.6,0.9-3.1,2.4-4c-1-2.3-0.1-5,2.1-6.2C6.5,40.8,6.7,40.7,6.9,40.6
	 M6.9,43.5c-0.7,0.8-0.9,2-0.3,3c0.1,0.2,0.2,0.3,0.3,0.4V43.5z M6.9,48.7c-0.4,0-0.9,0.1-1.3,0.4c-1.3,0.7-1.7,2.3-1,3.5
	c0.5,0.8,1.3,1.3,2.2,1.3v-0.8c-0.6,0-1.2-0.3-1.5-0.9c-0.5-0.8-0.2-1.9,0.7-2.4c0.3-0.2,0.6-0.2,0.9-0.2V48.7z"/>
<path class="st0" d="M12,60.1l0.2,0.4c-0.3,0.1-0.5,0.3-0.6,0.5c-0.1,0.2-0.1,0.4,0,0.7c0.1,0.3,0.3,0.4,0.5,0.5
	c0.2,0.1,0.4,0.1,0.7,0C12.9,62,13,62,13,61.9c0.1-0.1,0.1-0.2,0.2-0.3c0-0.1,0.1-0.3,0-0.6v-0.3c0-0.4,0-0.7,0.1-0.9
	c0.1-0.2,0.3-0.4,0.6-0.5c0.3-0.1,0.6-0.2,0.9,0c0.3,0.1,0.5,0.3,0.7,0.6c0.1,0.3,0.2,0.6,0.1,0.9c-0.1,0.3-0.3,0.5-0.6,0.6l0,0
	l-0.1-0.3c0.2-0.1,0.4-0.3,0.4-0.4c0.1-0.2,0.1-0.4,0-0.6c-0.1-0.2-0.2-0.4-0.4-0.4c-0.2-0.1-0.4-0.1-0.7,0c-0.1,0-0.2,0.1-0.2,0.2
	c-0.1,0.1-0.1,0.1-0.2,0.2c-0.1,0.1-0.1,0.4-0.1,0.8V61c0,0.4,0,0.7-0.1,0.9c-0.1,0.2-0.3,0.4-0.6,0.5c-0.4,0.2-0.7,0.2-1,0.1
	c-0.3-0.1-0.5-0.3-0.7-0.7c-0.1-0.4-0.2-0.7,0-1C11.3,60.6,11.6,60.3,12,60.1"/>
<path class="st0" d="M14.9,65.2c-0.5,0.2-0.9,0.3-1.2,0.3c-0.3-0.1-0.6-0.2-0.8-0.5c-0.2-0.4-0.2-0.8,0-1.2c0.2-0.4,0.7-0.7,1.4-1.1
	c0.7-0.4,1.3-0.6,1.7-0.6c0.4,0,0.8,0.2,1,0.5c0.2,0.3,0.2,0.7,0.1,1c-0.1,0.3-0.4,0.6-0.7,0.8l-0.2-0.3c0.3-0.2,0.5-0.4,0.6-0.6
	c0.1-0.2,0.1-0.4-0.1-0.6c-0.2-0.3-0.4-0.4-0.8-0.4c-0.4,0-0.9,0.2-1.4,0.5c-0.6,0.3-1,0.6-1.2,0.9c-0.2,0.3-0.2,0.5-0.1,0.8
	c0.1,0.2,0.3,0.4,0.6,0.4c0.3,0,0.6-0.1,0.9-0.2L14.9,65.2z"/>
<polygon class="st0" points="14.3,66.9 18,64.4 18.2,64.7 14.5,67.2 "/>
<polygon class="st0" points="15.2,68.2 18.7,65.4 20,66.9 19.7,67.1 18.7,65.9 17.4,66.9 18.4,68 18.1,68.2 17.1,67.1 15.7,68.3 
	16.8,69.5 16.5,69.7 "/>
<polygon class="st0" points="17.3,70.6 20.4,67.3 20.7,67.6 19.3,71.6 22,68.7 22.2,69 19.2,72.2 18.9,72 20.2,68 17.6,70.8 "/>
<polygon class="st0" points="20.9,73.4 23.2,70.1 22.3,69.5 22.5,69.2 24.6,70.5 24.3,70.8 23.5,70.3 21.2,73.6 "/>
<polygon class="st0" points="22.9,74.6 25,70.7 25.3,70.9 23.2,74.8 "/>
<path class="st0" d="M26.2,74.2l0.4,0.2l0.2-2.3L26.2,73v-0.5l0.7-0.9l0.4,0.1l-0.5,4.6l-0.4-0.1l0.1-1.4l-0.4-0.2V74.2z M25.5,73.9
	l0.7,0.2v0.4l-0.9-0.3l-0.8,1.2l-0.3-0.1l2.1-2.8V73L25.5,73.9z"/>
<polygon class="st0" points="28,76 28.4,76.1 27.5,77.3 27.2,77.3 "/>
<polygon class="st0" points="31,77.1 30.3,72.6 30.7,72.6 31.3,76.6 32.8,72.9 33.1,72.9 31.4,77.1 "/>
<polygon class="st0" points="33.5,77.3 33.6,72.9 34,72.9 33.9,77.3 "/>
<polygon class="st0" points="35.7,77.3 35.5,73.2 34.5,73.3 34.5,72.9 36.9,72.8 36.9,73.2 35.9,73.2 36.1,77.3 "/>
<path class="st0" d="M38.9,75.3l0.6-0.1l-0.6-1.3V73l1.7,3.7l-0.4,0.1l-0.6-1.3l-0.7,0.1V75.3z M38.2,75.4l0.6-0.1v0.4l-0.6,0.1
	l-0.1,1.4l-0.4,0.1l0.5-4.5l0.4-0.1l0.2,0.5v0.9l-0.4-0.8L38.2,75.4z"/>
<polygon class="st0" points="43.3,75.9 41.6,71.8 43.5,71.1 43.6,71.4 42.1,72 42.7,73.5 44.1,73 44.2,73.3 42.8,73.8 43.5,75.5 
	45.1,74.9 45.2,75.2 "/>
<polygon class="st0" points="46.8,74.3 44.8,70.8 43.9,71.3 43.7,71 45.8,69.8 46,70.1 45.1,70.6 47.2,74.2 "/>
<polygon class="st0" points="50.3,72 47.3,68.8 48.8,67.4 49,67.7 47.8,68.7 48.9,69.9 50,69 50.2,69.2 49.1,70.2 50.6,71.8 "/>
<rect x="50.8" y="66.1" transform="matrix(0.6657 -0.7462 0.7462 0.6657 -33.9511 60.8686)" class="st0" width="0.4" height="4.5"/>
<path class="st0" d="M53.6,68.2l0.3-0.4c0.3-0.4,0.4-0.7,0.3-1c-0.1-0.3-0.5-0.7-1.1-1.1c-0.3-0.2-0.5-0.4-0.8-0.5v-0.4
	c0.3,0.1,0.6,0.3,1,0.6c0.7,0.5,1,0.9,1.2,1.3c0.1,0.4,0,0.8-0.4,1.3l-0.6,0.7l-1.3-0.9v-0.5L53.6,68.2z M52.3,65.2
	c-0.2-0.1-0.4-0.2-0.6-0.2c-0.3,0-0.6,0.2-0.9,0.6L50.5,66l1.8,1.3v0.5L50,66.1l0.6-0.7c0.4-0.5,0.7-0.7,1.2-0.7
	c0.2,0,0.4,0,0.6,0.1V65.2z"/>
<polygon class="st0" points="55.8,65.7 51.9,63.5 52.9,61.8 53.2,61.9 52.4,63.3 53.8,64.1 54.5,62.9 54.8,63 54.1,64.3 55.7,65.2 
	56.5,63.8 56.8,63.9 "/>
<path class="st0" d="M56.1,62.6l0.2-0.3c0.3,0.1,0.6,0.1,0.8,0.1c0.2-0.1,0.4-0.2,0.5-0.4c0.1-0.3,0.1-0.5,0.1-0.7
	c-0.1-0.2-0.2-0.4-0.5-0.5c-0.1-0.1-0.2-0.1-0.4-0.1c-0.1,0-0.2,0-0.3,0.1c-0.1,0.1-0.3,0.2-0.5,0.4c-0.1,0.1-0.2,0.1-0.2,0.2
	c-0.3,0.2-0.5,0.4-0.8,0.5c-0.2,0.1-0.5,0-0.8-0.1c-0.3-0.1-0.5-0.3-0.6-0.6c-0.1-0.3-0.1-0.6,0.1-0.9c0.1-0.3,0.3-0.5,0.6-0.6
	c0.3-0.1,0.6-0.1,0.9,0.1h0l-0.1,0.3c-0.2-0.1-0.5-0.1-0.6-0.1c-0.2,0.1-0.3,0.2-0.4,0.4c-0.1,0.2-0.1,0.4,0,0.6
	c0.1,0.2,0.2,0.3,0.4,0.4c0.1,0,0.2,0.1,0.3,0.1c0.1,0,0.2,0,0.3,0c0.2-0.1,0.4-0.2,0.6-0.5c0.1,0,0.1-0.1,0.1-0.1
	c0.3-0.2,0.5-0.4,0.8-0.5c0.2-0.1,0.5,0,0.8,0.1c0.4,0.2,0.6,0.4,0.7,0.7c0.1,0.3,0.1,0.6-0.1,1c-0.2,0.4-0.4,0.6-0.7,0.7
	C56.8,62.8,56.5,62.8,56.1,62.6"/>
</svg>
